<?xml version="1.0" encoding="UTF-8" standalone="no"?>
<!-- Generator: Adobe Illustrator 25.2.3, SVG Export Plug-In . SVG Version: 6.00 Build 0)  -->

<svg
   version="1.1"
   id="Layer_1"
   x="0px"
   y="0px"
   viewBox="0 0 50 50"
   style="enable-background:new 0 0 50 50;"
   xml:space="preserve"
   sodipodi:docname="camera.svg"
   inkscape:version="1.2.2 (732a01da63, 2022-12-09)"
   xmlns:inkscape="http://www.inkscape.org/namespaces/inkscape"
   xmlns:sodipodi="http://sodipodi.sourceforge.net/DTD/sodipodi-0.dtd"
   xmlns="http://www.w3.org/2000/svg"
   xmlns:svg="http://www.w3.org/2000/svg"><defs
   id="defs11" /><sodipodi:namedview
   id="namedview9"
   pagecolor="#ffffff"
   bordercolor="#000000"
   borderopacity="0.25"
   inkscape:showpageshadow="2"
   inkscape:pageopacity="1"
   inkscape:pagecheckerboard="0"
   inkscape:deskcolor="#d1d1d1"
   showgrid="false"
   showborder="false"
   inkscape:zoom="4.72"
   inkscape:cx="14.088983"
   inkscape:cy="25"
   inkscape:window-width="2256"
   inkscape:window-height="1470"
   inkscape:window-x="-11"
   inkscape:window-y="-11"
   inkscape:window-maximized="1"
   inkscape:current-layer="Layer_1" />
<path
   style="fill:none;stroke:#000000;stroke-width:2;stroke-linecap:round;stroke-miterlimit:2;"
   d="M14,9H5.818  C3.159,9,1,11.159,1,13.818v22.365C1,38.841,3.159,41,5.818,41h38.365C46.841,41,49,38.841,49,36.182V13.818  C49,11.159,46.841,9,44.182,9H36l-1.838-3.064C33.441,4.735,32.143,4,30.742,4c-3.043,0-8.43,0-11.477,0  c-1.405,0-2.708,0.737-3.431,1.942L14,9z"
   id="path2" />
<circle
   style="fill:none;stroke:#000000;stroke-width:2;stroke-linecap:round;stroke-miterlimit:1.5;"
   cx="25"
   cy="25"
   r="12"
   id="circle4" />
<circle
   style="fill:none;stroke:#000000;stroke-width:2;stroke-linecap:round;stroke-miterlimit:1.5;"
   cx="25"
   cy="25"
   r="7.5"
   id="circle6" />
</svg>
